<svg width="2568" height="297" viewBox="0 0 2568 297" fill="none" xmlns="http://www.w3.org/2000/svg">
<path d="M689 222.769C616.6 209.569 527.167 276.769 515 296.269H562H2002.5H2052C2016.4 255.469 1910 242.103 1886 256.269C1823.6 110.269 1685 96.4359 1623.5 107.769C1490.3 -62.2308 1313.67 6.26922 1242 61.7692C1118 -55.4308 992.667 43.6025 945.5 107.769C807.5 80.1692 717 172.936 689 222.769Z" fill="#FCFAED"/>
<path d="M1497.12 256.306C1458.02 249.178 1409.72 285.469 1403.15 296H1428.53H2206.47H2233.21C2213.98 273.966 2156.52 266.747 2143.56 274.398C2109.86 195.551 2035.01 188.08 2001.79 194.201C1929.86 102.392 1834.47 139.386 1795.77 169.358C1728.8 106.065 1661.11 159.548 1635.64 194.201C1561.11 179.295 1512.24 229.394 1497.12 256.306Z" fill="#FCFAED"/>
<path d="M2484.93 261.246C2519.17 255.004 2561.45 286.78 2567.21 296H2544.98H1863.85H1840.44C1857.28 276.708 1907.59 270.388 1918.94 277.086C1948.44 208.051 2013.98 201.51 2043.06 206.869C2106.04 126.485 2189.56 158.875 2223.45 185.118C2282.08 129.7 2341.34 176.528 2363.65 206.869C2428.9 193.818 2471.69 237.682 2484.93 261.246Z" fill="#FCFAED"/>
<path d="M643.936 261.245C678.141 255.009 720.393 286.757 726.141 295.97H703.936H23.3859H0.00012207C16.819 276.694 67.0867 270.379 78.4252 277.072C107.906 208.096 173.386 201.56 202.441 206.915C265.37 126.6 348.819 158.962 382.677 185.182C441.26 129.812 500.472 176.6 522.756 206.915C587.952 193.875 630.708 237.702 643.936 261.245Z" fill="#FCFAED"/>
<path d="M427.692 256.203C388.626 249.081 340.369 285.341 333.804 295.863H359.165H1136.44H1163.15C1143.94 273.848 1086.53 266.635 1073.58 274.28C1039.91 195.5 965.121 188.036 931.937 194.151C860.064 102.421 764.755 139.383 726.084 169.33C659.175 106.09 591.547 159.527 566.097 194.151C491.633 179.258 442.801 229.314 427.692 256.203Z" fill="#FCFAED"/>
</svg>
