<svg width="2500" height="2500" viewBox="0 0 2500 2500" fill="none" xmlns="http://www.w3.org/2000/svg">
<g clip-path="url(#clip0_50_21)">
<path d="M2480 1250V1247.8V1245.6C2477.8 559.8 1924.6 0 1249.6 0C571.3 0 19.0996 559.8 19.0996 1250C19.0996 1938 571.3 2500 1249.5 2500C1562.6 2500 1857.1 2381.5 2085.4 2165.2C2131 2121.7 2134.3 2051.1 2089.8 2005.4C2048.5 1959.7 1977.8 1956.5 1932.2 1997.8C1932.2 1997.8 1932.2 1997.8 1930 2000C1746.3 2173.9 1498.5 2273.9 1244.1 2273.9C946.3 2273.9 680 2143.5 495.2 1934.8L1021.3 1092.4V1482.6C1021.3 1669.6 1094.1 1729.3 1155 1746.7C1215.9 1764.1 1307.2 1751 1407.2 1594.5L1695.2 1127.1C1705 1113 1712.6 1097.8 1722.4 1088V1325C1722.4 1498.9 1793.1 1640.2 1913.7 1707.6C2022.4 1770.7 2160.4 1763 2274.6 1693.5C2414.8 1601.1 2489.8 1441.3 2480 1250ZM2160.4 1494.6C2116.9 1521.8 2065.8 1526.1 2026.7 1504.4C1977.8 1475.1 1949.5 1409.8 1949.5 1320.7V1046.8C1949.5 916.4 1898.4 821.8 1811.5 796.8C1663.7 753.3 1551.7 934.8 1510.4 1003.3L1249.5 1421.8V905.4C1246.2 786.9 1208.2 717.4 1135.4 695.6C1086.5 681.5 1014.7 688 944.1 794.5L360.4 1729.3C282.2 1581.5 242 1417.4 242 1250C242 685.9 695.3 227.2 1249.6 227.2C1804 227.2 2257.2 685.9 2257.2 1250V1252.2V1254.4C2261.5 1364.1 2227.8 1451.1 2160.4 1494.6Z" fill="#FCFAED"/>
</g>
<defs>
<clipPath id="clip0_50_21">
<rect width="2500" height="2500" fill="white"/>
</clipPath>
</defs>
</svg>
